<?xml version="1.0" encoding="utf-8"?>
<!-- Generator: Adobe Illustrator 19.0.0, SVG Export Plug-In . SVG Version: 6.00 Build 0)  -->
<svg version="1.1" id="Layer_1" xmlns="http://www.w3.org/2000/svg" xmlns:xlink="http://www.w3.org/1999/xlink" x="0px" y="0px"
	 viewBox="0 0 581.5 106.4" style="enable-background:new 0 0 581.5 106.4;" xml:space="preserve">
<style type="text/css">
	.st0{fill:#CDDFF2;}
</style>
<g>
	<path d="M0,59.8h16.4c13.2,0,22.3,9.1,22.3,20.9v0.1c0,11.8-9.1,21-22.3,21H0V59.8z M16.4,93.5C23.9,93.5,29,88.4,29,81v-0.1
		c0-7.4-5.1-12.7-12.7-12.7H9.2v25.3H16.4z"/>
	<path d="M44.4,85.9v-0.1c0-9.2,7.4-16.7,17.5-16.7c10,0,17.3,7.4,17.3,16.6v0.1c0,9.2-7.4,16.7-17.5,16.7
		C51.8,102.6,44.4,95.2,44.4,85.9z M70.2,85.9v-0.1c0-4.7-3.4-8.9-8.5-8.9c-5.2,0-8.3,4-8.3,8.8v0.1c0,4.7,3.4,8.9,8.5,8.9
		C67.1,94.7,70.2,90.7,70.2,85.9z"/>
	<path d="M84.2,85.9v-0.1c0-9.2,7-16.7,16.9-16.7c6.1,0,9.8,2,12.8,5.4l-5.6,6c-2-2.2-4.1-3.5-7.3-3.5c-4.6,0-7.8,4-7.8,8.8v0.1
		c0,4.9,3.2,8.9,8.2,8.9c3.1,0,5.2-1.3,7.4-3.4l5.3,5.4c-3.1,3.4-6.7,5.9-13.1,5.9C91.3,102.6,84.2,95.1,84.2,85.9z"/>
	<path d="M119.8,90.5V69.7h9.1v17.9c0,4.3,2,6.5,5.5,6.5c3.5,0,5.7-2.2,5.7-6.5V69.7h9.1v32.2h-9.1v-4.6c-2.1,2.7-4.8,5.2-9.4,5.2
		C123.8,102.4,119.8,97.9,119.8,90.5z"/>
	<path d="M157.4,69.7h9.1v4.6c2.1-2.7,4.9-5.2,9.5-5.2c4.2,0,7.4,1.9,9.1,5.1c2.8-3.3,6.2-5.1,10.6-5.1c6.8,0,10.9,4.1,10.9,11.8
		v20.9h-9.1V83.9c0-4.3-1.9-6.5-5.3-6.5s-5.5,2.2-5.5,6.5v17.9h-9.1V83.9c0-4.3-1.9-6.5-5.3-6.5s-5.5,2.2-5.5,6.5v17.9h-9.1V69.7z"
		/>
	<path d="M212.9,85.9v-0.1c0-9.2,6.5-16.7,15.9-16.7c10.7,0,15.7,8.3,15.7,17.5c0,0.7-0.1,1.6-0.1,2.4h-22.4
		c0.9,4.1,3.8,6.3,7.9,6.3c3.1,0,5.3-1,7.8-3.3l5.2,4.6c-3,3.7-7.3,6-13.1,6C220,102.6,212.9,95.8,212.9,85.9z M235.6,83.2
		c-0.5-4.1-2.9-6.8-6.8-6.8c-3.8,0-6.2,2.7-7,6.8H235.6z"/>
	<path d="M251.2,69.7h9.1v4.6c2.1-2.7,4.8-5.2,9.4-5.2c6.9,0,10.9,4.6,10.9,11.9v20.8h-9.1V83.9c0-4.3-2-6.5-5.5-6.5
		c-3.5,0-5.7,2.2-5.7,6.5v17.9h-9.1V69.7z"/>
	<path d="M290.1,92.7V77.5h-3.8v-7.8h3.8v-8.2h9.1v8.2h7.6v7.8h-7.6v13.7c0,2.1,0.9,3.1,2.9,3.1c1.7,0,3.2-0.4,4.5-1.1v7.3
		c-1.9,1.1-4.1,1.9-7.2,1.9C293.9,102.4,290.1,100.2,290.1,92.7z"/>
	<path d="M312.6,81v-0.1c0-11.9,9-21.7,21.9-21.7c7.9,0,12.7,2.6,16.6,6.5l-5.9,6.8c-3.2-2.9-6.5-4.7-10.7-4.7
		c-7.1,0-12.2,5.9-12.2,13.1v0.1c0,7.2,5,13.2,12.2,13.2c4.8,0,7.7-1.9,11-4.9l5.9,5.9c-4.3,4.6-9.1,7.5-17.2,7.5
		C321.8,102.6,312.6,93,312.6,81z"/>
	<path d="M358.2,58h9.1v43.8h-9.1V58z"/>
	<path d="M374.3,85.9v-0.1c0-9.2,7.4-16.7,17.5-16.7c10,0,17.3,7.4,17.3,16.6v0.1c0,9.2-7.4,16.7-17.5,16.7
		C381.7,102.6,374.3,95.2,374.3,85.9z M400.1,85.9v-0.1c0-4.7-3.4-8.9-8.5-8.9c-5.2,0-8.3,4-8.3,8.8v0.1c0,4.7,3.4,8.9,8.5,8.9
		C397,94.7,400.1,90.7,400.1,85.9z"/>
	<path d="M415.5,90.5V69.7h9.1v17.9c0,4.3,2,6.5,5.5,6.5c3.5,0,5.7-2.2,5.7-6.5V69.7h9.1v32.2h-9.1v-4.6c-2.1,2.7-4.8,5.2-9.4,5.2
		C419.5,102.4,415.5,97.9,415.5,90.5z"/>
	<path d="M451.7,85.8v-0.1c0-10.7,7-16.6,14.6-16.6c4.9,0,7.9,2.2,10,4.8V58h9.1v43.8h-9.1v-4.6c-2.2,3-5.3,5.2-10,5.2
		C458.8,102.4,451.7,96.6,451.7,85.8z M476.5,85.8v-0.1c0-5.3-3.5-8.9-7.8-8.9s-7.9,3.5-7.9,8.9v0.1c0,5.3,3.6,8.9,7.9,8.9
		S476.5,91.2,476.5,85.8z"/>
</g>
<g>
	<g>
		<path class="st0" d="M441.9,30.3c0,0,0,0-0.1-0.1l0,0c-0.1-0.1-0.2-0.3-0.4-0.5l0,0c-0.4-0.4-1-1-1.8-1.8l0,0
			c-1.6-1.5-3.9-3.6-6.8-5.7l0,0c-5.8-4.3-14-8.8-23.1-10.1l0,0c-2.3-0.3-4.5-0.5-6.6-0.5l0,0c-16,0-24.3,9.2-25,9.9l0,0l0,0
			l-3.2,3.9l-3.7-3.4c0,0,0,0-0.1-0.1l0,0c-0.1-0.1-0.2-0.2-0.4-0.3l0,0c-0.4-0.3-0.9-0.8-1.6-1.3l0,0c-1.5-1.1-3.7-2.6-6.4-4.1l0,0
			c-5.5-3-13.4-6-22.5-6l0,0c-0.5,0-1,0-1.5,0l0,0c-5.1,0.2-8.9,1.2-11.9,2.6l0,0l-3.9-8.5c4.2-1.9,9.3-3.2,15.4-3.4l0,0
			c0.6,0,1.3,0,1.9,0l0,0c16.2,0.1,28.3,7.4,33.9,11.6l0,0c4.7-4,14.3-10.1,28.9-10.1l0,0c2.5,0,5.2,0.2,7.9,0.6l0,0
			c15.4,2.3,27.3,11.3,33.4,16.8l0,0c1.5-2.1,3.6-4.6,6.3-7.1l0,0c7-6.3,18.6-12.5,35.8-12.4l0,0c1.6,0,3.2,0,4.8,0.2l0,0
			c5.1,0.3,10.5,1,15.6,2.2l0,0l-2.3,9.1c-4.2-1.1-9.1-1.7-13.9-2l0,0c-1.5-0.1-2.9-0.1-4.2-0.1l0,0c-14.6,0-23.5,4.8-29,9.6l0,0
			c-5.5,4.8-7.7,9.7-7.8,10l0,0l0,0L447,36L441.9,30.3L441.9,30.3z M326.8,12.7L326.8,12.7L326.8,12.7L326.8,12.7L326.8,12.7
			L326.8,12.7z"/>
	</g>
	<g>
		<path class="st0" d="M572.2,106.4c-0.1-3.3-1-7.2-3.1-11.8l0,0c-7.4-16.2-23.5-23.1-25.1-23.7l0,0c-0.1,0-0.1,0-0.1,0l0,0
			l-4.7-1.7l2-4.6l0,0l0,0l0,0c0,0,0,0,0-0.1l0,0c0-0.1,0.1-0.2,0.2-0.5l0,0c0.2-0.4,0.4-1.1,0.6-2l0,0c0.4-1.8,0.9-4.4,0.9-7.7l0,0
			c0-5.9-1.5-13.7-7.5-22.3l0,0c-9.1-13.2-26.1-19.3-30-20.4l0,0c-0.6-0.2-0.8-0.2-0.8-0.2l0,0l2.3-9.1c0.4,0.2,22.9,5.7,36.1,24.3
			l0,0c7.2,10.2,9.2,20.2,9.2,27.7l0,0c0,3.9-0.5,7.2-1.1,9.5l0,0c6.5,3.3,19.2,11.3,26.4,26.8l0,0c2.6,5.6,3.8,11.1,3.9,15.7"/>
	</g>
</g>
</svg>
